<?xml version="1.0" encoding="utf-8"?>
<!-- Generator: Adobe Illustrator 21.0.2, SVG Export Plug-In . SVG Version: 6.00 Build 0)  -->
<svg version="1.1" id="Layer_1" xmlns="http://www.w3.org/2000/svg" xmlns:xlink="http://www.w3.org/1999/xlink" x="0px" y="0px"
	 viewBox="0 0 54 23.6" style="enable-background:new 0 0 54 23.6;" xml:space="preserve">
<style type="text/css">
	.st0{fill:#2D3142;}
	.st1{fill:#2D3142;stroke:#2D3142;stroke-width:0.25;stroke-miterlimit:10;}
</style>
<g>
	<path class="st0" d="M53.8,11.3l-4.6-4.6c-0.2-0.2-0.6-0.2-0.9,0c-0.2,0.2-0.2,0.6,0,0.9l4.1,4.1l-4.1,4.1
		c-0.1,0.1-0.2,0.3-0.2,0.4c0,0.2,0.1,0.3,0.2,0.4c0.1,0.1,0.3,0.2,0.4,0.2c0.2,0,0.3-0.1,0.4-0.2l4.6-4.6c0.1-0.1,0.2-0.3,0.2-0.4
		C54,11.5,53.9,11.4,53.8,11.3z"/>
	<path class="st0" d="M0.2,12.1l4.6,4.6c0.2,0.2,0.6,0.2,0.9,0c0.2-0.2,0.2-0.6,0-0.9l-4.1-4.1l4.1-4.1c0.1-0.1,0.2-0.3,0.2-0.4
		c0-0.2-0.1-0.3-0.2-0.4C5.5,6.6,5.3,6.5,5.2,6.5C5,6.5,4.8,6.6,4.7,6.7l-4.6,4.6C0.1,11.4,0,11.5,0,11.7C0,11.9,0.1,12,0.2,12.1z"
		/>
	<g>
		<path class="st0" d="M32.9,10.1l-8.1-5.3c-1.4-0.9-2.5-0.3-2.5,1.4v11.2c0,1.7,1.1,2.3,2.5,1.4l8.1-5.3
			C34.3,12.6,34.3,11.1,32.9,10.1z M31.8,12.4l-7.2,4.7c-0.5,0.3-0.8,0.1-0.8-0.5V7c0-0.6,0.4-0.8,0.8-0.5l7.2,4.7
			C32.3,11.6,32.3,12.1,31.8,12.4z"/>
		<path class="st1" d="M44.5,23.5H10.2c-0.4,0-0.8-0.3-0.8-0.8V0.9c0-0.4,0.3-0.8,0.8-0.8h34.2c0.4,0,0.8,0.3,0.8,0.8v21.8
			C45.2,23.1,44.9,23.5,44.5,23.5z M43.7,1.7H11v20.2h32.7V1.7z"/>
	</g>
</g>
</svg>
