<?xml version="1.0" encoding="utf-8"?>
<!-- Generator: Adobe Illustrator 21.0.2, SVG Export Plug-In . SVG Version: 6.00 Build 0)  -->
<svg version="1.1" id="Layer_1" xmlns="http://www.w3.org/2000/svg" xmlns:xlink="http://www.w3.org/1999/xlink" x="0px" y="0px"
	 viewBox="0 0 54 43.5" style="enable-background:new 0 0 54 43.5;" xml:space="preserve">
<style type="text/css">
	.st0{fill:#2D3142;}
</style>
<path class="st0" d="M0.8,37.7c1.3-1.3,3.2-3.2,5.5-5.5c2.1-2.1,3.7-3.7,9.8-9.8c2.9-2.9,5.7-5.7,8.6-8.6c2.6-2.6,5.2-5.2,7.9-7.9
	c0.1-0.1,0.1-0.1,0.2-0.2c0.6-0.6,1.3-0.6,1.9,0c0.5,0.5,1.1,1.1,1.6,1.6c0.7,0.7,1.4,1.4,2.1,2.1c0.7,0.7,0.7,1.3,0,2
	c-2.4,2.4-4.7,4.7-7.1,7.1c-2.4,2.4-4.7,4.7-7.1,7.1c-2.4,2.4-4.7,4.7-7.1,7.1c-2.5,2.5-5,5-7.5,7.4c-0.9,0.9-1.9,1.9-2.8,2.8
	c-0.3,0.3-0.7,0.4-1.1,0.4c-0.4,0-0.6-0.3-0.7-0.4c-0.6-0.5-2-1.9-3.9-3.9c-0.1,0-0.4-0.3-0.5-0.7C0.6,38.1,0.8,37.8,0.8,37.7z
	 M33.7,8.3c-10,10-20,20-30,30c0,0,0,0,0,0c0.7,0.7,1.4,1.4,2.1,2.1c0,0,0.2,0,0.3-0.1c1-1,1.9-1.9,2.9-2.9c2-2,3.9-3.9,5.9-5.9
	c2.1-2.1,4.2-4.2,6.3-6.3c2.2-2.2,4.5-4.4,6.7-6.7c2.3-2.3,4.5-4.5,6.8-6.8c0.4-0.4,0.9-0.8,1.3-1.2C35.1,9.8,34.4,9.1,33.7,8.3z"/>
<path class="st0" d="M50.3,16.8c-0.3,0.7-0.8,0.9-1.5,0.9c-0.3,0-0.7,0-1,0c-0.3,0-0.4,0.1-0.4,0.3c0,0.3,0,0.6,0,0.9
	c0,0.7-0.5,1.2-1.1,1.2c-0.7,0-1.1-0.5-1.2-1.2c0-0.3,0-0.6,0-0.9c0-0.3-0.1-0.4-0.4-0.4c-0.5,0-1,0-1.5,0c-0.7,0-1.2-0.5-1.1-1.2
	c0-0.5,0.4-1,0.9-1.1c0.5-0.1,1,0,1.5-0.1c0.6,0,0.5,0.1,0.5-0.5c0-0.4,0-0.8,0-1.1c0-0.7,0.5-1.2,1.2-1.2c0.7,0,1.1,0.5,1.1,1.2
	c0,0.5,0,1.1,0,1.7c0.5,0,1,0,1.5,0c0.6,0,1.1,0.2,1.3,0.8c0,0,0,0.1,0.1,0.1C50.3,16.5,50.3,16.7,50.3,16.8z"/>
<path class="st0" d="M17.3,9.2c0.2,0,0.3,0,0.4,0c1.7,0,3.5,0,5.2,0c0.7,0,1.2,0.4,1.3,1c0.1,0.7-0.3,1.2-1,1.3c-0.2,0-0.3,0-0.5,0
	c-1.7,0-3.3,0-5,0c-0.1,0-0.3,0-0.5,0c0,0.2,0,0.3,0,0.4c0,1.4,0,2.9,0,4.3c0,0.8-0.5,1.3-1.3,1.3c-0.5,0-0.9-0.5-1-0.9
	c0-0.2,0-0.3,0-0.5c0-1.4,0-2.8,0-4.2c0-0.3-0.1-0.4-0.4-0.4c-1.5,0-2.9,0-4.4,0c-0.3,0-0.7-0.1-0.9-0.3c-0.7-0.5-0.6-1.6,0.3-1.9
	c0.2-0.1,0.5-0.1,0.7-0.1c1.4,0,2.8,0,4.2,0c0.1,0,0.3,0,0.5,0c0-0.2,0-0.3,0-0.4c0-1.4,0-2.8,0-4.3c0-0.5,0.1-0.9,0.6-1.2
	c0.7-0.4,1.5-0.1,1.7,0.7c0,0.2,0,0.4,0,0.6c0,1.4,0,2.8,0,4.2C17.3,8.9,17.3,9,17.3,9.2z"/>
<path class="st0" d="M34.6,25.5c0.2,0,0.3,0,0.5,0c1.7,0,3.3,0,5,0c0.2,0,0.4,0,0.6,0.1c0.5,0.1,0.9,0.6,0.9,1.1
	c0,0.5-0.3,1-0.9,1.1c-0.2,0-0.4,0.1-0.6,0.1c-1.7,0-3.4,0-5.1,0c-0.3,0-0.4,0.1-0.4,0.4c0,1.5,0,3,0,4.6c0,0.4-0.1,0.7-0.4,1
	c-0.4,0.4-0.8,0.4-1.2,0.3c-0.4-0.2-0.7-0.5-0.7-1c0-0.6,0-1.1,0-1.7c0-1.1,0-2.2,0-3.2c0-0.3-0.1-0.4-0.4-0.4c-1.5,0-3,0-4.5,0
	c-0.7,0-1.1-0.3-1.3-0.9c-0.2-0.6,0.2-1.2,0.8-1.4c0.2,0,0.4-0.1,0.6-0.1c1.4,0,2.9,0,4.3,0c0.3,0,0.4-0.1,0.4-0.4
	c0-1.4,0-2.8,0-4.2c0-0.9,0.9-1.4,1.7-1.1c0.5,0.2,0.6,0.7,0.6,1.2c0,1.3,0,2.6,0,4C34.6,25.1,34.6,25.3,34.6,25.5z"/>
<path class="st0" d="M28.7,5.4c0,0.4,0,0.7,0,1.1c0,0.7-0.5,1.2-1.1,1.2c-0.7,0-1.2-0.5-1.2-1.2c0-0.4,0-0.8,0-1.2
	c-0.4,0-0.8,0-1.2,0c-1,0.1-1.5-0.6-1.5-1.2c0-0.7,0.5-1.1,1.4-1.1c0.4,0,0.8,0,1.2,0c0-0.4,0-0.8,0-1.3c0-0.4,0-0.7,0.2-1.1
	c0.2-0.5,0.7-0.7,1.2-0.6c0.5,0.1,0.9,0.4,0.9,0.9c0.1,0.5,0.1,1.1,0,1.6c0,0.3,0.1,0.4,0.4,0.4c0.5,0,1,0,1.6,0
	c0.7,0,1.2,0.5,1.2,1.2c0,0.6-0.5,1.1-1.2,1.1c-0.6,0-1.2,0-1.8,0C28.8,5.4,28.7,5.4,28.7,5.4z"/>
<path class="st0" d="M0.7,38.1"/>
</svg>
