<?xml version="1.0" encoding="utf-8"?>
<!-- Generator: Adobe Illustrator 21.0.2, SVG Export Plug-In . SVG Version: 6.00 Build 0)  -->
<svg version="1.1" id="Layer_1" xmlns="http://www.w3.org/2000/svg" xmlns:xlink="http://www.w3.org/1999/xlink" x="0px" y="0px"
	 viewBox="0 0 50.9 54" style="enable-background:new 0 0 50.9 54;" xml:space="preserve">
<style type="text/css">
	.st0{fill:#2D3142;}
</style>
<g>
	<path class="st0" d="M41.2,34.7c-3.1,0-5.9,1.5-7.6,3.8l-14.8-8.3c0.3-1,0.5-2.1,0.5-3.2c0-1.1-0.2-2.2-0.5-3.2l14.8-8.3
		c1.8,2.3,4.5,3.8,7.7,3.8c5.3,0,9.7-4.3,9.7-9.7S46.6,0,41.2,0s-9.7,4.3-9.7,9.7c0,1.1,0.2,2.2,0.5,3.2l-14.8,8.3
		c-1.8-2.3-4.5-3.8-7.7-3.8C4.3,17.3,0,21.7,0,27s4.3,9.7,9.7,9.7c3.1,0,5.9-1.5,7.7-3.8l14.8,8.3c-0.4,1-0.6,2.1-0.6,3.2
		c0,5.3,4.3,9.7,9.7,9.7s9.7-4.3,9.7-9.7S46.6,34.7,41.2,34.7z M41.2,3c3.7,0,6.6,3,6.6,6.6s-3,6.6-6.6,6.6s-6.6-3-6.6-6.6
		S37.6,3,41.2,3z M9.7,33.6C6,33.6,3,30.6,3,27s3-6.6,6.6-6.6s6.6,3,6.6,6.6S13.3,33.6,9.7,33.6z M41.2,51c-3.7,0-6.6-3-6.6-6.6
		s3-6.6,6.6-6.6s6.6,3,6.6,6.6S44.9,51,41.2,51z"/>
</g>
</svg>
