<?xml version="1.0" encoding="utf-8"?>
<!-- Generator: Adobe Illustrator 21.0.2, SVG Export Plug-In . SVG Version: 6.00 Build 0)  -->
<svg version="1.1" id="Layer_1" xmlns="http://www.w3.org/2000/svg" xmlns:xlink="http://www.w3.org/1999/xlink" x="0px" y="0px"
	 viewBox="0 0 54 45.7" style="enable-background:new 0 0 54 45.7;" xml:space="preserve">
<style type="text/css">
	.st0{fill:#2D3142;}
</style>
<g>
	<g>
		<path class="st0" d="M52.8,12.6L28,0.2c-0.6-0.3-1.3-0.3-2,0L1.2,12.6C0.5,13,0,13.8,0,14.6s0.5,1.6,1.2,2L26,29
			c0.3,0.2,0.6,0.2,1,0.2c0.3,0,0.7-0.1,1-0.2l24.8-12.4c0.7-0.4,1.2-1.1,1.2-2C54,13.8,53.5,13,52.8,12.6z M27,24.6l-19.9-10
			L27,4.6l19.9,10L27,24.6z"/>
	</g>
	<g>
		<g>
			<g>
				<path class="st0" d="M53.8,30.1c-0.5-1.1-1.8-1.5-2.9-1L27,41.1L3.2,29.2c-1.1-0.5-2.4-0.1-2.9,1c-0.5,1.1-0.1,2.4,1,2.9
					L26,45.5c0.3,0.2,0.6,0.2,1,0.2c0.3,0,0.7-0.1,1-0.2l24.8-12.4C53.9,32.5,54.3,31.2,53.8,30.1z"/>
			</g>
		</g>
	</g>
	<g>
		<g>
			<g>
				<path class="st0" d="M53.8,21.9c-0.5-1.1-1.8-1.5-2.9-1L27,32.8L3.2,20.9c-1.1-0.5-2.4-0.1-2.9,1c-0.5,1.1-0.1,2.4,1,2.9
					L26,37.2c0.3,0.2,0.6,0.2,1,0.2c0.3,0,0.7-0.1,1-0.2l24.8-12.4C53.9,24.3,54.3,23,53.8,21.9z"/>
			</g>
		</g>
	</g>
</g>
</svg>
