<?xml version="1.0" encoding="utf-8"?>
<!-- Generator: Adobe Illustrator 21.0.2, SVG Export Plug-In . SVG Version: 6.00 Build 0)  -->
<svg version="1.1" id="Layer_1" xmlns="http://www.w3.org/2000/svg" xmlns:xlink="http://www.w3.org/1999/xlink" x="0px" y="0px"
	 viewBox="0 0 53.9 53.9" style="enable-background:new 0 0 53.9 53.9;" xml:space="preserve">
<style type="text/css">
	.st0{fill:#2E3243;}
</style>
<g>
	<path class="st0" d="M26.9,0.1c-14.8,0-26.8,12-26.8,26.8s12,26.8,26.8,26.8s26.8-12,26.8-26.8S41.7,0.1,26.9,0.1z M26.9,50.5
		c-13,0-23.6-10.6-23.6-23.6S13.9,3.4,26.9,3.4s23.6,10.6,23.6,23.6S39.9,50.5,26.9,50.5z"/>
	<path class="st0" d="M35.5,25.6L23.2,13.3c-0.6-0.6-1.7-0.6-2.3,0c-0.6,0.6-0.6,1.7,0,2.3L32,26.8L20.9,37.9
		c-0.3,0.3-0.5,0.7-0.5,1.2c0,0.4,0.2,0.9,0.5,1.2c0.3,0.3,0.7,0.5,1.2,0.5c0.4,0,0.9-0.2,1.2-0.5L35.5,28c0.3-0.3,0.5-0.7,0.5-1.2
		S35.8,25.9,35.5,25.6z"/>
</g>
</svg>
