<?xml version="1.0" encoding="utf-8"?>
<!-- Generator: Adobe Illustrator 21.0.2, SVG Export Plug-In . SVG Version: 6.00 Build 0)  -->
<svg version="1.1" id="Layer_1" xmlns="http://www.w3.org/2000/svg" xmlns:xlink="http://www.w3.org/1999/xlink" x="0px" y="0px"
	 viewBox="0 0 54 36.5" style="enable-background:new 0 0 54 36.5;" xml:space="preserve">
<style type="text/css">
	.st0{fill:#2D3142;}
	.st1{clip-path:url(#SVGID_2_);fill:none;}
	.st2{clip-path:url(#SVGID_2_);fill:#2D3142;}
	.st3{clip-path:url(#SVGID_2_);fill:#FFFFFF;}
	.st4{opacity:0.3;}
	.st5{clip-path:url(#SVGID_4_);fill:none;}
	.st6{clip-path:url(#SVGID_4_);fill:#2D3142;}
	.st7{clip-path:url(#SVGID_4_);fill:#FFFFFF;}
</style>
<g>
	<path class="st0" d="M53.8,19.2l-4.4-4.4c-0.2-0.2-0.6-0.2-0.8,0c-0.2,0.2-0.2,0.6,0,0.8l4,4l-4,4c-0.1,0.1-0.2,0.3-0.2,0.4
		c0,0.2,0.1,0.3,0.2,0.4c0.1,0.1,0.3,0.2,0.4,0.2c0.2,0,0.3-0.1,0.4-0.2l4.4-4.4c0.1-0.1,0.2-0.3,0.2-0.4S53.9,19.3,53.8,19.2z"/>
	<path class="st0" d="M0.2,20.1l4.4,4.4c0.2,0.2,0.6,0.2,0.8,0c0.2-0.2,0.2-0.6,0-0.8l-4-4l4-4c0.1-0.1,0.2-0.3,0.2-0.4
		S5.5,15,5.4,14.9c-0.1-0.1-0.3-0.2-0.4-0.2c-0.2,0-0.3,0.1-0.4,0.2l-4.4,4.4C0.1,19.3,0,19.5,0,19.6S0.1,19.9,0.2,20.1z"/>
	<path class="st0" d="M43.9,36.5h-36V2.8h36V36.5z M8.9,35.5h33.9V3.8H8.9V35.5z"/>
	<g>
		<defs>
			<rect id="SVGID_1_" x="10.5" y="13.3" width="30.7" height="20.7"/>
		</defs>
		<clipPath id="SVGID_2_">
			<use xlink:href="#SVGID_1_"  style="overflow:visible;"/>
		</clipPath>
		<path class="st1" d="M43.3,34h0.6c0.1-0.1,0.2-0.3,0.2-0.5L44,10c0-0.3-0.3-0.6-0.6-0.6H13.6C13.3,9.4,13,9.7,13,10v0.6h28.5
			c0.7,0,1.3,0.6,1.3,1.3v5.8h0.5V34z"/>
		<path class="st1" d="M46.6,7.5c0-0.3-0.3-0.6-0.6-0.6H16.2c-0.4,0-0.6,0.3-0.6,0.6v0.6H44c0.7,0,1.3,0.6,1.3,1.3v22.2H46
			c0.4,0,0.6-0.3,0.6-0.6h0V7.5z"/>
		<path class="st1" d="M41.5,17.8v-5.2c0-0.3-0.3-0.6-0.6-0.6H11c-0.4,0-0.6,0.3-0.6,0.6v13.8L21,17.2c0.2-0.2,0.6-0.2,0.9,0
			L33,26.9l4.1-4.6c0.3-0.3,0.7-0.3,1,0l3.4,3.8L41.5,17.8L41.5,17.8z M32.4,20.8c-1.4,0-2.6-1.1-2.6-2.5c0-1.4,1.2-2.5,2.6-2.5
			s2.6,1.1,2.6,2.5C35,19.7,33.8,20.8,32.4,20.8z"/>
		<path class="st2" d="M46.6,5.6H15.6c-0.7,0-1.3,0.6-1.3,1.3v1.3H13c-0.7,0-1.3,0.6-1.3,1.3v1.3h-1.3c-0.7,0-1.3,0.6-1.3,1.3v22h1
			V22.3h0.3V34h31.1v-7.9l-3.4-3.8c-0.3-0.3-0.7-0.3-1,0L33,26.9l-11.2-9.7c-0.2-0.2-0.6-0.2-0.9,0l-10.6,9.2V12.6
			c0-0.3,0.3-0.6,0.6-0.6h29.8c0.4,0,0.6,0.3,0.6,0.6v5.2h1.3v-5.8c0-0.7-0.6-1.3-1.3-1.3H13V10c0-0.3,0.3-0.6,0.6-0.6h29.8
			c0.4,0,0.6,0.3,0.6,0.6l0,23.5c0,0.2-0.1,0.3-0.2,0.5H45v0.1h-1.3c-0.1,0-0.2,0.1-0.3,0.1h-0.1v1.3H44c0.7,0,1.3-0.6,1.3-1.3v-1.3
			h1.3c0.7,0,1.3-0.6,1.3-1.3V6.9C47.9,6.1,47.4,5.6,46.6,5.6z M46,31.6h-0.6V9.4c0-0.7-0.6-1.3-1.3-1.3H15.6V7.5
			c0-0.3,0.3-0.6,0.6-0.6H46c0.4,0,0.6,0.3,0.6,0.6V31h0C46.6,31.3,46.3,31.6,46,31.6z"/>
		<ellipse class="st2" cx="32.4" cy="18.3" rx="2.6" ry="2.5"/>
		<rect x="10.1" y="22.3" class="st3" width="0.3" height="11.7"/>
		<polygon class="st3" points="41.5,17.8 41.4,17.8 41.4,26.1 41.5,26.1 		"/>
		<rect x="42.8" y="17.8" class="st3" width="0.5" height="16.2"/>
		<polygon class="st3" points="42.8,17.8 41.5,17.8 41.5,26.1 41.4,26.1 41.4,34 42.8,34 		"/>
	</g>
	<g class="st4">
		<path class="st0" d="M47.5,33.8h-36V0h36V33.8z M12.5,32.8h33.9V1H12.5V32.8z"/>
		<g>
			<defs>
				<rect id="SVGID_3_" x="14.1" y="10.5" width="30.7" height="20.7"/>
			</defs>
			<clipPath id="SVGID_4_">
				<use xlink:href="#SVGID_3_"  style="overflow:visible;"/>
			</clipPath>
			<path class="st5" d="M46.9,31.2h0.6c0.1-0.1,0.2-0.3,0.2-0.5l0-23.5c0-0.3-0.3-0.6-0.6-0.6H17.2c-0.4,0-0.6,0.3-0.6,0.6v0.6h28.5
				c0.7,0,1.3,0.6,1.3,1.3V15h0.5V31.2z"/>
			<path class="st5" d="M50.2,4.7c0-0.3-0.3-0.6-0.6-0.6H19.8c-0.4,0-0.6,0.3-0.6,0.6v0.6h28.5c0.7,0,1.3,0.6,1.3,1.3v22.2h0.6
				c0.4,0,0.6-0.3,0.6-0.6h0V4.7z"/>
			<path class="st5" d="M45.1,15V9.8c0-0.3-0.3-0.6-0.6-0.6H14.7c-0.4,0-0.6,0.3-0.6,0.6v13.8l10.6-9.2c0.2-0.2,0.6-0.2,0.9,0
				l11.2,9.7l4.1-4.6c0.3-0.3,0.7-0.3,1,0l3.4,3.8L45.1,15L45.1,15z M36,18c-1.4,0-2.6-1.1-2.6-2.5S34.6,13,36,13s2.6,1.1,2.6,2.5
				S37.4,18,36,18z"/>
			<path class="st6" d="M50.3,2.8H19.2c-0.7,0-1.3,0.6-1.3,1.3v1.3h-1.3c-0.7,0-1.3,0.6-1.3,1.3v1.3H14c-0.7,0-1.3,0.6-1.3,1.3v22h1
				V19.5H14v11.7H45v-7.9l-3.4-3.8c-0.3-0.3-0.7-0.3-1,0l-4.1,4.6l-11.2-9.7c-0.2-0.2-0.6-0.2-0.9,0L14,23.6V9.8
				c0-0.3,0.3-0.6,0.6-0.6h29.8c0.4,0,0.6,0.3,0.6,0.6V15h1.3V9.1c0-0.7-0.6-1.3-1.3-1.3H16.6V7.2c0-0.3,0.3-0.6,0.6-0.6H47
				c0.4,0,0.6,0.3,0.6,0.6l0,23.5c0,0.2-0.1,0.3-0.2,0.5h1.2v0.1h-1.3c-0.1,0-0.2,0.1-0.3,0.1h-0.1v1.3h0.8c0.7,0,1.3-0.6,1.3-1.3
				v-1.3h1.3c0.7,0,1.3-0.6,1.3-1.3V4.1C51.5,3.4,51,2.8,50.3,2.8z M49.6,28.8H49V6.6c0-0.7-0.6-1.3-1.3-1.3H19.2V4.7
				c0-0.3,0.3-0.6,0.6-0.6h29.8c0.4,0,0.6,0.3,0.6,0.6v23.5h0C50.3,28.5,50,28.8,49.6,28.8z"/>
			<ellipse class="st6" cx="36" cy="15.5" rx="2.6" ry="2.5"/>
			<rect x="13.7" y="19.5" class="st7" width="0.3" height="11.7"/>
			<polygon class="st7" points="45.1,15 45,15 45,23.3 45.1,23.3 			"/>
			<rect x="46.4" y="15" class="st7" width="0.5" height="16.2"/>
			<polygon class="st7" points="46.4,15 45.1,15 45.1,23.3 45,23.3 45,31.2 46.4,31.2 			"/>
		</g>
	</g>
</g>
</svg>
