<?xml version="1.0" encoding="utf-8"?>
<!-- Generator: Adobe Illustrator 21.0.2, SVG Export Plug-In . SVG Version: 6.00 Build 0)  -->
<svg version="1.1" id="Layer_1" xmlns="http://www.w3.org/2000/svg" xmlns:xlink="http://www.w3.org/1999/xlink" x="0px" y="0px"
	 viewBox="0 0 64 45" style="enable-background:new 0 0 64 45;" xml:space="preserve">
<style type="text/css">
	.st0{fill:#FFFFFF;}
	.st1{clip-path:url(#XMLID_2_);}
	.st2{clip-path:url(#XMLID_4_);}
</style>
<g>
	<g>
		<path class="st0" d="M32.8,19.6c-0.3-0.4-0.7-0.7-1.2-1c-0.5-0.3-1-0.4-1.5-0.5v8.8c0.5-0.1,1-0.3,1.5-0.5c0.5-0.3,0.9-0.6,1.2-1
			c0.3-0.4,0.6-0.8,0.8-1.3c0.2-0.5,0.3-1,0.3-1.6c0-0.5-0.1-1.1-0.3-1.6C33.4,20.4,33.1,20,32.8,19.6z"/>
		<path class="st0" d="M32,0C19.5,0,9.3,10.1,9.3,22.5S19.5,45,32,45s22.7-10.1,22.7-22.5S44.6,0,32,0z M20.1,26
			c-0.2,0.4-0.5,0.8-0.8,1.2c-0.3,0.3-0.7,0.6-1.2,0.8c-0.4,0.2-0.9,0.3-1.4,0.3V27c0.3,0,0.6-0.1,0.9-0.2c0.3-0.1,0.5-0.3,0.8-0.5
			c0.2-0.2,0.4-0.5,0.5-0.8c0.1-0.3,0.2-0.6,0.2-0.9c0-0.3-0.1-0.6-0.2-0.9c-0.1-0.3-0.3-0.5-0.5-0.8c-0.3-0.2-0.6-0.5-0.9-0.7
			c-0.3-0.2-0.6-0.5-0.8-0.7c-0.2-0.3-0.4-0.5-0.6-0.9c-0.2-0.3-0.2-0.7-0.2-1.1c0-0.4,0.1-0.7,0.2-1.1c0.1-0.3,0.4-0.6,0.6-0.9
			c0.3-0.2,0.6-0.4,0.9-0.6c0.3-0.1,0.7-0.2,1.1-0.2V18c-0.4,0-0.8,0.1-1.1,0.4c-0.3,0.3-0.4,0.6-0.4,1.1c0,0.2,0,0.4,0.1,0.6
			c0.1,0.2,0.2,0.3,0.3,0.5l1.7,1.4c0.4,0.3,0.6,0.7,0.8,1.2c0.2,0.5,0.3,0.9,0.3,1.5C20.4,25.1,20.3,25.5,20.1,26z M26.1,28.2h-5
			V16.8h1.3V27h3.7V28.2z M28.1,28.2h-1.3V16.8h1.3V28.2z M34.7,24.7c-0.3,0.7-0.7,1.3-1.2,1.8c-0.5,0.5-1.1,0.9-1.8,1.2
			c-0.7,0.3-1.4,0.5-2.2,0.5h-0.6V16.8h0.6c0.8,0,1.5,0.2,2.2,0.5c0.7,0.3,1.3,0.7,1.8,1.2c0.5,0.5,0.9,1.1,1.2,1.8
			c0.3,0.7,0.5,1.4,0.5,2.2C35.2,23.3,35,24,34.7,24.7z M41.9,28.2c-0.8,0-1.5-0.2-2.2-0.5c-0.7-0.3-1.3-0.7-1.8-1.2
			c-0.5-0.5-0.9-1.1-1.2-1.8c-0.3-0.7-0.5-1.4-0.5-2.2v-1.8h-0.7v-1.3h0.7v-2.7h5.6V18h-4.3v1.4h4.4v1.3h-4.4v1.8
			c0,0.6,0.1,1.2,0.3,1.7c0.2,0.5,0.5,1,1,1.4c0.4,0.4,0.9,0.7,1.4,1c0.5,0.2,1.1,0.4,1.7,0.4V28.2z M45.8,27.7
			c-0.7-0.3-1.4-0.8-1.9-1.4v1.9h-1.3V16.8h0.9c0.6,0,1.2,0.1,1.7,0.3c0.5,0.2,1,0.5,1.4,0.9c0.4,0.4,0.7,0.9,1,1.4
			c0.2,0.5,0.4,1.1,0.4,1.7c0,0.5-0.1,1-0.2,1.4c-0.2,0.5-0.4,0.9-0.7,1.2c-0.3,0.4-0.6,0.7-1,1c-0.4,0.3-0.8,0.5-1.3,0.6
			c0.4,0.5,0.9,0.9,1.5,1.2c0.6,0.3,1.2,0.4,1.9,0.4v1.3C47.3,28.2,46.5,28.1,45.8,27.7z"/>
		<path class="st0" d="M45.9,23.2c0.3-0.3,0.5-0.6,0.6-1c0.1-0.4,0.2-0.7,0.2-1.1c0-0.4-0.1-0.8-0.2-1.1c-0.1-0.4-0.3-0.7-0.6-1
			c-0.3-0.3-0.6-0.5-0.9-0.7c-0.3-0.2-0.7-0.3-1.1-0.3v6.2c0.4,0,0.8-0.1,1.1-0.3C45.3,23.8,45.6,23.5,45.9,23.2z"/>
	</g>
	<g id="XMLID_13_">
		<defs>
			<path id="XMLID_14_" d="M52.8,9C59.2,10.2,64,15.8,64,22.5c0,6.7-4.8,12.2-11.2,13.4c2.7-3.8,4.3-8.4,4.3-13.4
				C57.1,17.5,55.5,12.8,52.8,9z"/>
		</defs>
		<clipPath id="XMLID_2_">
			<use xlink:href="#XMLID_14_"  style="overflow:visible;"/>
		</clipPath>
		<g id="XMLID_15_" class="st1">
			<defs>
				<path id="XMLID_16_" d="M64.9,22.4c0-7.8-6.4-14.1-14.2-14.1c-1.1,0-2.2,0.1-3.2,0.4c4.7,3.8,7.7,9.6,7.7,16
					c0,4.4-1.4,8.4-3.7,11.7C59,36,64.9,29.9,64.9,22.4z M61.4,22.3l-2.5,3.2l0.8-3.1l-0.8-3.2L61.4,22.3z"/>
			</defs>
			<use xlink:href="#XMLID_16_"  style="overflow:visible;fill:#FFFFFF;"/>
			<clipPath id="XMLID_3_">
				<use xlink:href="#XMLID_16_"  style="overflow:visible;"/>
			</clipPath>
		</g>
	</g>
	<g id="XMLID_7_">
		<defs>
			<path id="XMLID_8_" d="M11.2,35.9C4.8,34.7,0,29.1,0,22.5C0,15.8,4.8,10.2,11.2,9c-2.7,3.8-4.3,8.4-4.3,13.4
				C6.9,27.5,8.5,32.1,11.2,35.9z"/>
		</defs>
		<clipPath id="XMLID_4_">
			<use xlink:href="#XMLID_8_"  style="overflow:visible;"/>
		</clipPath>
		<g id="XMLID_9_" class="st2">
			<defs>
				<path id="XMLID_10_" d="M-0.9,22.6c0,7.8,6.4,14.1,14.2,14.1c1.1,0,2.2-0.1,3.2-0.4c-4.7-3.8-7.7-9.6-7.7-16
					c0-4.4,1.4-8.4,3.7-11.7C5,9-0.9,15.1-0.9,22.6z M2.6,22.6l2.5-3.2l-0.8,3.1l0.8,3.2L2.6,22.6z"/>
			</defs>
			<use xlink:href="#XMLID_10_"  style="overflow:visible;fill:#FFFFFF;"/>
			<clipPath id="XMLID_5_">
				<use xlink:href="#XMLID_10_"  style="overflow:visible;"/>
			</clipPath>
		</g>
	</g>
</g>
</svg>
