<svg xmlns="http://www.w3.org/2000/svg" xmlns:xlink="http://www.w3.org/1999/xlink" width="20" height="20" viewBox="0 0 20 20">
  <defs>
    <clipPath id="clip-path">
      <rect id="Rectangle_52383" data-name="Rectangle 52383" width="20" height="20" fill="#fff"/>
    </clipPath>
  </defs>
  <g id="Mask_Group_95438" data-name="Mask Group 95438" clip-path="url(#clip-path)">
    <g id="Check" transform="translate(3.611 4.167)">
      <rect id="Rectangle_52382" data-name="Rectangle 52382" width="11.667" height="11.667" transform="translate(0.554)" fill="none"/>
      <path id="Path_171443" data-name="Path 171443" d="M12376.762-12939.955l-3.084-3.322a1.517,1.517,0,0,1-.425-1.084,1.494,1.494,0,0,1,.425-1.082l.023-.027.024-.018a1.67,1.67,0,0,1,1.1-.437,1.445,1.445,0,0,1,1.071.482l.008.006,1.933,2.166,5.658-6a1.357,1.357,0,0,1,1.059-.479,1.519,1.519,0,0,1,1.059.482,1.514,1.514,0,0,1,.418,1.119,1.546,1.546,0,0,1-.53,1.064l-6.612,7.133a1.371,1.371,0,0,1-1.061.479A1.37,1.37,0,0,1,12376.762-12939.955Z" transform="translate(-12373.253 12950.449)" fill="#22b339"/>
    </g>
  </g>
</svg>
