<svg xmlns="http://www.w3.org/2000/svg" width="14" height="14" viewBox="0 0 14 14">
  <g id="Group_104876" data-name="Group 104876" transform="translate(-56 -355)">
    <path id="Path_169137" data-name="Path 169137" d="M18.5,25.5a7.016,7.016,0,0,1-7-7.038,6.9,6.9,0,0,1,2.043-4.919A6.812,6.812,0,0,1,18.424,11.5a7.148,7.148,0,0,1,7.076,7,6.944,6.944,0,0,1-6.924,7Zm0-10.821a.908.908,0,1,0,.908.908h0A.947.947,0,0,0,18.5,14.678Zm0,2.8h0a.921.921,0,0,0-.908.908v2.989a.921.921,0,0,0,.908.908h0a.921.921,0,0,0,.908-.908V18.386A.921.921,0,0,0,18.5,17.478Z" transform="translate(44.5 343.5)" fill="rgba(34,179,57,0.1)"/>
    <g id="Info" transform="translate(56 355)">
      <path id="Path_169137-2" data-name="Path 169137" d="M18.547,14.678a.955.955,0,1,0,.955.955h0A1,1,0,0,0,18.547,14.678Zm0,2.945h0a.969.969,0,0,0-.955.955v3.144a.969.969,0,0,0,.955.955h0a.969.969,0,0,0,.955-.955V18.579A.969.969,0,0,0,18.547,17.624Z" transform="translate(-11.5 -11.5)" fill="#22b339"/>
    </g>
  </g>
</svg>
