<?xml version="1.0" encoding="utf-8"?>
<!-- Generator: Adobe Illustrator 21.0.2, SVG Export Plug-In . SVG Version: 6.00 Build 0)  -->
<svg version="1.1" id="Layer_1" xmlns="http://www.w3.org/2000/svg" xmlns:xlink="http://www.w3.org/1999/xlink" x="0px" y="0px"
	 viewBox="0 0 30 21.9" style="enable-background:new 0 0 30 21.9;" xml:space="preserve">
<style type="text/css">
	.st0{fill:none;}
	.st1{opacity:0.8;fill:#555D66;enable-background:new    ;}
	.st2{opacity:0.5;fill:#555D66;enable-background:new    ;}
	.st3{opacity:0.5;fill:#2296BC;enable-background:new    ;}
</style>
<polygon class="st0" points="-35.8,41.7 -33.9,49.4 -35.8,56.9 -30,49.2 "/>
<polygon class="st0" points="-35.8,41.6 -33.8,49.4 -35.8,56.9 -29.9,49.2 "/>
<g>
	<polygon class="st0" points="28,9.4 28.3,11 28,12.5 29.1,10.9 	"/>
	<rect x="12.9" y="9.1" class="st0" width="0.4" height="3.3"/>
	<path class="st0" d="M15.2,9.1h-1v3.3h0.9c0.6,0,1-0.1,1.3-0.4c0.3-0.3,0.4-0.7,0.5-1.3c0-0.5-0.1-0.9-0.4-1.2
		C16.1,9.2,15.7,9.1,15.2,9.1z M16.1,11.7c-0.2,0.2-0.6,0.4-1.1,0.4h-0.5V9.4h0.6c0.4,0,0.8,0.1,1,0.3c0.2,0.2,0.3,0.6,0.3,1
		C16.4,11.2,16.3,11.5,16.1,11.7z"/>
	<polygon class="st0" points="10.8,9.1 10.4,9.1 10.4,12.4 12.3,12.4 12.3,12.4 12.3,12 10.8,12 	"/>
	<polygon class="st0" points="17.6,12.4 19.4,12.4 19.4,12.4 19.4,12.1 18,12.1 18,10.8 19.3,10.8 19.3,10.5 18,10.5 18,9.4 
		19.4,9.4 19.4,9.1 17.6,9.1 	"/>
	<polygon class="st0" points="2,9.6 0.9,11.1 2,12.6 0.9,11.1 	"/>
	<path class="st0" d="M8.8,10.5c-0.2-0.1-0.4-0.1-0.5-0.2c-0.1-0.1-0.2-0.1-0.2-0.2S8.1,10,8.1,9.8c0-0.2,0.1-0.3,0.2-0.4
		c0.1-0.1,0.3-0.1,0.5-0.1c0.3,0,0.5,0.1,0.8,0.2l0.1-0.3C9.4,9,9.1,9,8.7,9C8.5,9,8.2,9.1,8,9.2C7.8,9.4,7.7,9.6,7.7,9.8
		c0,0.2,0.1,0.4,0.2,0.6s0.3,0.3,0.7,0.4C8.8,10.9,8.9,11,9,11.1c0.1,0.1,0.2,0.1,0.2,0.2c0.1,0.1,0.1,0.2,0.1,0.3
		c0,0.2-0.1,0.3-0.2,0.4c-0.1,0.1-0.3,0.2-0.6,0.2c-0.2,0-0.3,0-0.5-0.1c-0.2,0-0.3-0.1-0.5-0.1v0.4c0.2,0.1,0.5,0.2,0.9,0.2
		c0.4,0,0.7-0.1,0.9-0.3c0.2-0.2,0.3-0.4,0.3-0.7c0-0.2-0.1-0.4-0.2-0.6C9.4,10.8,9.2,10.7,8.8,10.5z"/>
	<polygon class="st0" points="28,9.4 28.4,11 28,12.5 29.1,10.9 	"/>
	<path class="st0" d="M21.6,10.9c0.4-0.2,0.7-0.4,0.7-0.9c0-0.3-0.1-0.5-0.3-0.7c-0.2-0.2-0.5-0.2-0.9-0.2h-0.9v3.3h0.4V11h0.7
		l0.8,1.4h0.5L21.6,10.9z M21.1,10.7h-0.5V9.4h0.5c0.3,0,0.5,0.1,0.6,0.2c0.1,0.1,0.2,0.3,0.2,0.5s-0.1,0.4-0.2,0.5
		C21.5,10.6,21.3,10.7,21.1,10.7z"/>
	<polygon class="st0" points="2,9.6 0.9,11.1 2,12.6 1.6,11.1 	"/>
	<path class="st1" d="M21.9,10c0-0.2-0.1-0.4-0.2-0.5c-0.1-0.1-0.3-0.2-0.6-0.2h-0.5v1.3h0.5c0.3,0,0.5-0.1,0.6-0.2
		C21.8,10.4,21.9,10.3,21.9,10z"/>
	<path class="st1" d="M15.1,9.4h-0.6v2.7H15c0.5,0,0.8-0.1,1.1-0.4c0.2-0.2,0.4-0.5,0.4-1c0-0.4-0.1-0.8-0.3-1
		C15.9,9.5,15.5,9.4,15.1,9.4z"/>
	<path class="st1" d="M14.9,0.3C9,0.3,4.2,5.1,4.2,11S9,21.7,14.9,21.7S25.6,16.9,25.6,11S20.8,0.3,14.9,0.3z M9.4,12.2
		c-0.2,0.2-0.5,0.3-0.9,0.3c-0.4,0-0.7-0.1-0.9-0.2v-0.4C7.8,12,7.9,12,8.1,12.1c0.2,0,0.3,0.1,0.5,0.1c0.3,0,0.5-0.1,0.6-0.2
		c0.1-0.1,0.2-0.2,0.2-0.4c0-0.1,0-0.2-0.1-0.3S9.2,11.1,9,11.1c-0.1-0.1-0.3-0.1-0.5-0.2c-0.3-0.1-0.5-0.2-0.7-0.4
		c-0.1-0.2-0.2-0.4-0.2-0.6c0-0.2,0.1-0.5,0.3-0.6C8.2,9.1,8.5,9,8.7,9C9.1,9,9.4,9,9.7,9.2L9.5,9.5C9.3,9.4,9,9.3,8.7,9.3
		c-0.2,0-0.4,0-0.5,0.1C8.2,9.6,8.1,9.7,8.1,9.8c0,0.1,0,0.2,0.1,0.3c0,0.1,0.1,0.1,0.2,0.2c0.1,0.1,0.3,0.1,0.5,0.2
		c0.4,0.1,0.6,0.3,0.7,0.4c0.1,0.2,0.2,0.4,0.2,0.6C9.7,11.8,9.6,12,9.4,12.2z M12.3,12.4L12.3,12.4h-1.9V9.1h0.4v3h1.5V12.4z
		 M13.3,12.4h-0.4V9.1h0.4V12.4z M16.4,12c-0.3,0.3-0.7,0.4-1.3,0.4h-0.9V9.1h1c0.5,0,0.9,0.1,1.2,0.4c0.3,0.3,0.4,0.7,0.4,1.2
		C16.8,11.2,16.7,11.7,16.4,12z M19.4,9.4H18v1.1h1.4v0.3H18v1.2h1.5v0.3h0h-1.8V9.1h1.9V9.4z M22,12.4L21.3,11h-0.7v1.4h-0.4V9.1
		h0.9c0.4,0,0.7,0.1,0.9,0.2c0.2,0.2,0.3,0.4,0.3,0.7c0,0.5-0.2,0.7-0.7,0.9l0.9,1.5C22.5,12.4,22,12.4,22,12.4z"/>
	<path class="st2" d="M24.7,4.6c1.3,1.8,2,4,2,6.4s-0.7,4.6-2,6.4c3-0.6,5.3-3.2,5.3-6.4C30,7.8,27.7,5.2,24.7,4.6z M28,12.5
		l0.4-1.5L28,9.4l1.2,1.5L28,12.5z"/>
	<path class="st2" d="M5.3,4.6C2.3,5.2,0,7.8,0,11s2.3,5.8,5.3,6.4c-1.3-1.8-2-4-2-6.4c0-1.2,0.2-2.4,0.6-3.6
		C4.3,6.1,4.9,5.2,5.3,4.6C5.3,4.6,5.3,4.6,5.3,4.6C5.3,4.6,5.3,4.6,5.3,4.6z M2,12.6l-1.2-1.5L2,9.6l-0.4,1.5L2,12.6z"/>
	<polygon class="st3" points="1.6,11.1 2,12.6 1.7,11.1 2,9.6 	"/>
</g>
</svg>
