<?xml version="1.0" encoding="utf-8"?>
<!-- Generator: Adobe Illustrator 21.0.2, SVG Export Plug-In . SVG Version: 6.00 Build 0)  -->
<svg version="1.1" id="Layer_1" xmlns="http://www.w3.org/2000/svg" xmlns:xlink="http://www.w3.org/1999/xlink" x="0px" y="0px"
	 width="153.6px" height="110px" viewBox="0 0 153.6 110" style="enable-background:new 0 0 153.6 110;" xml:space="preserve">
<style type="text/css">
	.st0{opacity:0.8;fill:#2296BC;enable-background:new    ;}
	.st1{opacity:0.5;fill:#2296BC;enable-background:new    ;}
	.st2{enable-background:new    ;}
	.st3{fill:#FFFFFF;}
</style>
<g>
	<circle id="XMLID_7582_" class="st0" cx="76.2" cy="55" r="55"/>
	<path class="st1" d="M126.5,22.1c6.5,9.3,10.3,20.7,10.3,32.9s-3.8,23.5-10.3,32.9c15.4-3,27.1-16.6,27.1-32.9
		C153.6,38.6,142,25,126.5,22.1z M143.3,62.3l2-7.6l-2-7.9l6,7.7L143.3,62.3z"/>
	<path class="st1" d="M27.1,87.8c-6.5-9.3-10.3-20.7-10.3-32.9S20.6,31.4,27.1,22C11.7,25,0,38.6,0,54.9S11.7,84.8,27.1,87.8z
		 M10.3,47.5l-2,7.6l2,7.9l-6-7.7L10.3,47.5z"/>
</g>
<g class="st2">
	<path class="st3" d="M49.8,57.5c0,1.5-0.5,2.7-1.6,3.5s-2.6,1.3-4.5,1.3c-2,0-3.6-0.3-4.7-0.8v-1.9c0.7,0.3,1.5,0.5,2.3,0.7
		s1.6,0.3,2.5,0.3c1.3,0,2.3-0.3,3-0.8s1-1.2,1-2.1c0-0.6-0.1-1.1-0.4-1.5s-0.6-0.7-1.2-1s-1.4-0.7-2.5-1.1c-1.6-0.6-2.7-1.2-3.4-2
		s-1-1.8-1-3.1c0-1.3,0.5-2.4,1.5-3.2s2.3-1.2,3.9-1.2c1.7,0,3.3,0.3,4.7,0.9l-0.6,1.7c-1.4-0.6-2.8-0.9-4.1-0.9
		c-1.1,0-1.9,0.2-2.5,0.7s-0.9,1.1-0.9,1.9c0,0.6,0.1,1.1,0.3,1.5s0.6,0.7,1.1,1s1.3,0.7,2.4,1c1.8,0.6,3,1.3,3.7,2.1
		S49.8,56.3,49.8,57.5z"/>
	<path class="st3" d="M53.3,62V44.9h2v15.3h7.6V62H53.3z"/>
	<path class="st3" d="M65.8,62V44.9h2V62H65.8z"/>
	<path class="st3" d="M86.2,53.3c0,2.8-0.8,5-2.3,6.5S80.1,62,77.2,62h-4.7V44.9h5.3c2.7,0,4.7,0.7,6.2,2.2S86.2,50.7,86.2,53.3z
		 M84,53.4c0-2.2-0.6-3.9-1.7-5.1s-2.8-1.7-5-1.7h-2.9v13.7h2.4c2.4,0,4.2-0.6,5.4-1.8S84,55.7,84,53.4z"/>
	<path class="st3" d="M99.5,62H90V44.9h9.6v1.8H92v5.5h7.1v1.8H92v6.3h7.6V62z"/>
	<path class="st3" d="M105.3,54.9V62h-2V44.9h4.7c2.1,0,3.7,0.4,4.7,1.2s1.5,2,1.5,3.6c0,2.3-1.1,3.8-3.4,4.6l4.7,7.7H113l-4.1-7.1
		H105.3z M105.3,53.2h2.7c1.4,0,2.4-0.3,3.1-0.8s1-1.4,1-2.5c0-1.1-0.3-1.9-1-2.4s-1.7-0.8-3.2-0.8h-2.6V53.2z"/>
</g>
</svg>
