<svg xmlns="http://www.w3.org/2000/svg" width="20" height="20" viewBox="0 0 20 20">
  <g id="caching_locations_worldwide" data-name="caching locations worldwide" transform="translate(-1168 -177)">
    <rect id="Rectangle_52304" data-name="Rectangle 52304" width="20" height="20" transform="translate(1168 177)" fill="none" opacity="0.3"/>
    <g id="icons-10" transform="translate(1168.9 178.83)">
      <g id="Group_104494" data-name="Group 104494" transform="translate(0 1.084)">
        <path id="Path_171564" data-name="Path 171564" d="M72.892,42.989a8.764,8.764,0,0,0-1.3-2.322.432.432,0,0,0-.3-.155c-.119,0-.238-.012-.357-.012s-.238,0-.357.012a.4.4,0,0,0-.3.143,8.764,8.764,0,0,0-1.3,2.322c-.107.274-.2.548-.286.834h4.49C73.083,43.537,72.988,43.251,72.892,42.989Z" transform="translate(-63.329 -40.5)" fill="rgba(50,58,69,0.3)"/>
        <path id="Path_171565" data-name="Path 171565" d="M63.9,112.153H69a17.943,17.943,0,0,0,.3-2.453H63.6A14.86,14.86,0,0,0,63.9,112.153Z" transform="translate(-58.836 -101.458)" fill="rgba(50,58,69,0.3)"/>
        <path id="Path_171566" data-name="Path 171566" d="M68.983,78.8h-5.1a16.086,16.086,0,0,0-.286,2.453h5.681A14.7,14.7,0,0,0,68.983,78.8Z" transform="translate(-58.836 -74.239)" fill="rgba(50,58,69,0.3)"/>
        <path id="Path_171567" data-name="Path 171567" d="M68.886,141.534a8.061,8.061,0,0,0,1.3,2.334.361.361,0,0,0,.3.143c.119.012.238.012.369.012s.238,0,.357-.012a.4.4,0,0,0,.3-.143,8.66,8.66,0,0,0,1.3-2.334,8.565,8.565,0,0,0,.286-.834H68.6A8.565,8.565,0,0,0,68.886,141.534Z" transform="translate(-63.241 -128.766)" fill="rgba(50,58,69,0.3)"/>
        <path id="Path_171568" data-name="Path 171568" d="M119.662,81.253h3.525a7.441,7.441,0,0,0-.619-2.453H119.4A14.88,14.88,0,0,1,119.662,81.253Z" transform="translate(-107.99 -74.239)" fill="rgba(50,58,69,0.3)"/>
        <path id="Path_171569" data-name="Path 171569" d="M27.137,109.7H23.6a7.746,7.746,0,0,0,.619,2.453h3.168A15.158,15.158,0,0,1,27.137,109.7Z" transform="translate(-23.6 -101.458)" fill="rgba(50,58,69,0.3)"/>
        <path id="Path_171570" data-name="Path 171570" d="M107.855,140.962c-.107.369-.226.715-.345,1.012a10.971,10.971,0,0,1-.81,1.679,7.629,7.629,0,0,0,3.1-1.87,7.164,7.164,0,0,0,.905-1.084h-2.763Z" transform="translate(-96.803 -128.766)" fill="rgba(50,58,69,0.3)"/>
        <path id="Path_171571" data-name="Path 171571" d="M37.523,46.292c.107-.357.214-.691.345-1.012a11.573,11.573,0,0,1,.81-1.679,7.46,7.46,0,0,0-3.085,1.87,6.965,6.965,0,0,0-.893,1.084h2.751Z" transform="translate(-33.378 -43.231)" fill="rgba(50,58,69,0.3)"/>
        <path id="Path_171572" data-name="Path 171572" d="M37.523,140.962l-.083-.262H34.7a7.087,7.087,0,0,0,.893,1.084,7.46,7.46,0,0,0,3.085,1.87,10.971,10.971,0,0,1-.81-1.679A9.966,9.966,0,0,1,37.523,140.962Z" transform="translate(-33.378 -128.766)" fill="rgba(50,58,69,0.3)"/>
        <path id="Path_171573" data-name="Path 171573" d="M107.855,46.292l.083.262H110.7a6.525,6.525,0,0,0-.905-1.084,7.426,7.426,0,0,0-3.1-1.87,10.619,10.619,0,0,1,.822,1.691C107.641,45.6,107.748,45.934,107.855,46.292Z" transform="translate(-96.803 -43.231)" fill="rgba(50,58,69,0.3)"/>
        <path id="Path_171574" data-name="Path 171574" d="M119.4,112.153h3.168a7.441,7.441,0,0,0,.619-2.453h-3.525A14.88,14.88,0,0,1,119.4,112.153Z" transform="translate(-107.99 -101.458)" fill="rgba(50,58,69,0.3)"/>
        <path id="Path_171575" data-name="Path 171575" d="M27.4,78.8h-3.18a7.441,7.441,0,0,0-.619,2.453h3.537A13.815,13.815,0,0,1,27.4,78.8Z" transform="translate(-23.6 -74.239)" fill="rgba(50,58,69,0.3)"/>
      </g>
      <g id="Group_104495" data-name="Group 104495" transform="translate(12.225 0)">
        <path id="Path_171576" data-name="Path 171576" d="M126.266,35.044c.131,1.691,2.966,4.561,2.966,4.561s2.8-2.93,2.966-4.561c.25-2.5-1.334-3.644-2.966-3.644S126.063,32.329,126.266,35.044Zm1.274-.715a1.691,1.691,0,1,1,1.691,1.691A1.7,1.7,0,0,1,127.54,34.33Z" transform="translate(-126.248 -31.4)" fill="#5b6068"/>
      </g>
    </g>
  </g>
</svg>
