<svg id="Success_Done_Checkmark_Icon" xmlns="http://www.w3.org/2000/svg" width="14" height="14" viewBox="0 0 14 14">
  <path id="design_system_icons-29" data-name="design system icons-29" d="M25.5,18.5a7,7,0,1,1-7-7A7.008,7.008,0,0,1,25.5,18.5Zm-3.254-2.195a.646.646,0,0,0-.984,0l-3.33,3.33a.564.564,0,0,1-.341.151.411.411,0,0,1-.341-.151l-1.514-1.514a.581.581,0,0,0-.492-.189.719.719,0,0,0-.492.189.708.708,0,0,0,0,.984L17.1,21.451a.8.8,0,0,0,.492.189.719.719,0,0,0,.492-.189l4.162-4.162A.646.646,0,0,0,22.246,16.305Z" transform="translate(-11.5 -11.5)" fill="#22b339"/>
</svg>
