<svg xmlns="http://www.w3.org/2000/svg" width="31.952" height="14.45" viewBox="0 0 31.952 14.45">
  <g id="Group_104509" data-name="Group 104509" transform="translate(3970.004 -16396)">
    <path id="Path_171501" data-name="Path 171501" d="M83.81,10.027,80.1,9.165,79.435,8.9,62.4,9.033v8.219l21.41.066Z" transform="translate(-4024.845 16392.998)" fill="#fff"/>
    <path id="Path_171502" data-name="Path 171502" d="M73,13.522a1.893,1.893,0,0,0-.2-1.723,2.051,2.051,0,0,0-1.392-.729l-11.533-.133c-.066,0-.133-.066-.2-.066a.124.124,0,0,1,0-.2c.066-.133.133-.2.265-.2l11.6-.133a4.171,4.171,0,0,0,3.38-2.519L75.59,6.1c0-.066.066-.133,0-.2a7.554,7.554,0,0,0-14.516-.8,3.619,3.619,0,0,0-2.386-.663A3.453,3.453,0,0,0,55.639,7.49,3.621,3.621,0,0,0,55.7,8.683,4.84,4.84,0,0,0,51,13.522a2.719,2.719,0,0,0,.066.729.212.212,0,0,0,.2.2H72.541c.133,0,.265-.066.265-.2Z" transform="translate(-4021 16396)" fill="#f48120"/>
    <path id="Path_171503" data-name="Path 171503" d="M88.136,9.2H87.8c-.066,0-.133.066-.2.133l-.464,1.591a1.893,1.893,0,0,0,.2,1.723,2.051,2.051,0,0,0,1.392.729l2.453.133c.066,0,.133.066.2.066a.124.124,0,0,1,0,.2c-.066.133-.133.2-.265.2l-2.519.133a4.171,4.171,0,0,0-3.38,2.519l-.133.6c-.066.066,0,.2.133.2h8.75a.176.176,0,0,0,.2-.2,7.206,7.206,0,0,0,.265-1.723,6.337,6.337,0,0,0-6.3-6.3" transform="translate(-4032.485 16392.898)" fill="#faad3f"/>
  </g>
</svg>
