<svg xmlns="http://www.w3.org/2000/svg" width="16" height="14" viewBox="0 0 16 14">
  <g id="Group_104204" data-name="Group 104204" transform="translate(-19.842 -23.058)">
    <path id="Path_171432" data-name="Path 171432" d="M11.55,5.9V6a5.913,5.913,0,0,1-1.679,4.175,5.593,5.593,0,0,1-4.077,1.689A5.587,5.587,0,0,1,1.65,10.154,5.909,5.909,0,0,1,0,5.888a5.962,5.962,0,0,1,1.706-4.2,5.718,5.718,0,0,1,9.247,1.625H7.32a2.082,2.082,0,0,0-1.488-.523A3.089,3.089,0,0,0,2.792,5.927,3.088,3.088,0,0,0,5.844,9.051,2.664,2.664,0,0,0,8.3,7.75H5.807V5.2h5.77c.013,0-.013.114,0,.23C11.587,5.62,11.55,5.71,11.55,5.9Z" transform="translate(24.262 25.19)" fill="#67a5f7"/>
    <path id="Path_171433" data-name="Path 171433" d="M15.528,4.055a6.558,6.558,0,0,0-4.7-2.693,6.491,6.491,0,0,0-5.089,1.8,7.055,7.055,0,0,0,.135,9.919l-.685-.026H1.4A1.3,1.3,0,0,1-.005,11.571V4.729A2.321,2.321,0,0,1,1.929,2.3c.233-.051.442-.051.428-.394-.012-.242.184-.216.343-.216H4.267c.282,0,.588-.089.6.419.012.242.722.242.93-.038A10.973,10.973,0,0,0,6.617.813,1.489,1.489,0,0,1,8.024-.014C9.505,0,11.1,0,12.615-.014a1.322,1.322,0,0,1,1.359.8C14.389,1.83,15.613,4.145,15.528,4.055Z" transform="translate(19.85 23.08)" fill="#296ecc"/>
  </g>
</svg>
