<svg id="Try_10web_pro_icon" data-name="Try 10web pro_icon" xmlns="http://www.w3.org/2000/svg" width="42" height="42" viewBox="0 0 42 42">
  <rect id="Rectangle_49337" data-name="Rectangle 49337" width="42" height="42" fill="none"/>
  <g id="Group_96022" data-name="Group 96022" transform="translate(6.75 11.417)">
    <path id="Path_170301" data-name="Path 170301" d="M15.6,42.239,9.487,28H3.5Z" transform="translate(-3.5 -20.527)" fill="#22b339"/>
    <path id="Path_170302" data-name="Path 170302" d="M31.135,18.538,26.778,12H23.257L18.9,18.538Z" transform="translate(-10.768 -12)" fill="#22b339"/>
    <path id="Path_170303" data-name="Path 170303" d="M31.109,28H18.5l6.3,14.692Z" transform="translate(-10.554 -20.527)" fill="#22b339"/>
    <path id="Path_170304" data-name="Path 170304" d="M40.7,28,34.59,42.239,46.69,28Z" transform="translate(-18.19 -20.527)" fill="#22b339"/>
    <path id="Path_170305" data-name="Path 170305" d="M10.02,18.538,14.686,12H9.115a.513.513,0,0,0-.4.182L3.54,18.538Zm15.5,0h6.5l-5.2-6.356A.513.513,0,0,0,26.426,12h-5.57Z" transform="translate(-3.521 -12)" fill="#22b339"/>
  </g>
</svg>
