<svg xmlns="http://www.w3.org/2000/svg" width="70" height="75.102" viewBox="0 0 70 75.102"><defs><style>.a{fill:#4786ff;}.b{fill:#f8c332;}</style></defs><g transform="translate(-976 -427.781)"><path class="a" d="M149.036,17.978,136.08,30.934a2.373,2.373,0,0,1-4.024-1.669V23.376a29.115,29.115,0,0,0-8.245.883A9.152,9.152,0,0,0,119,27.008c-2.65,2.945-3.337,8.735-2.257,17.471a1.009,1.009,0,0,1-.687,1.178.885.885,0,0,1-.491.1,1.031,1.031,0,0,1-.883-.491c-4.122-5.5-6.183-10.4-6.183-14.919,0-1.472.1-2.846.2-4.024a30.478,30.478,0,0,1,.785-4.122,15.88,15.88,0,0,1,1.669-4.024A19.537,19.537,0,0,1,114,14.641a18.09,18.09,0,0,1,4.221-2.945A24.974,24.974,0,0,1,124.2,9.832a36.287,36.287,0,0,1,7.95-.687V3.256A2.247,2.247,0,0,1,133.627,1.1a2.226,2.226,0,0,1,2.552.491l12.858,13.152a2.311,2.311,0,0,1,0,3.239Z" transform="translate(1154.163 473.536) rotate(180)"/><path class="b" d="M148.7,30.33a3.382,3.382,0,0,0-2.257-.982,3.2,3.2,0,0,0-2.257.982,3.382,3.382,0,0,0-.982,2.257V56.046a7.456,7.456,0,0,1-7.459,7.459h-42.2a7.456,7.456,0,0,1-7.459-7.459V14.037a7.456,7.456,0,0,1,7.459-7.459h22.378a3.2,3.2,0,0,0,2.257-.982,3.382,3.382,0,0,0,.982-2.257,3.2,3.2,0,0,0-.982-2.257A3.382,3.382,0,0,0,115.914.1H93.536a14.317,14.317,0,0,0-5.4,1.08A13.682,13.682,0,0,0,83.72,4.222,15.258,15.258,0,0,0,80.58,8.541a12.948,12.948,0,0,0-1.08,5.4V56.046a14.317,14.317,0,0,0,1.08,5.4,13.682,13.682,0,0,0,3.043,4.417A15.413,15.413,0,0,0,88.039,68.9a12.948,12.948,0,0,0,5.4,1.08h42.107a14.317,14.317,0,0,0,5.4-1.08,13.682,13.682,0,0,0,4.417-3.043,15.413,15.413,0,0,0,3.043-4.417,12.947,12.947,0,0,0,1.08-5.4V32.686A3.013,3.013,0,0,0,148.7,30.33Z" transform="translate(896.5 432.9)"/></g></svg>