<svg xmlns="http://www.w3.org/2000/svg" width="22" height="13.114" viewBox="0 0 22 13.114"><g transform="translate(0 -98.725)"><path d="M11,98.725c-4.2,0-8.015,2.3-10.828,6.035a.871.871,0,0,0,0,1.04c2.813,3.74,6.625,6.039,10.828,6.039s8.015-2.3,10.828-6.035a.871.871,0,0,0,0-1.04C19.015,101.025,15.2,98.725,11,98.725Zm.3,11.174a4.627,4.627,0,1,1,4.316-4.316A4.63,4.63,0,0,1,11.3,109.9Zm-.14-2.133a2.492,2.492,0,1,1,2.327-2.327A2.488,2.488,0,0,1,11.162,107.766Z" transform="translate(0 0)"/></g></svg>